<?xml version="1.0" encoding="UTF-8" standalone="no"?>
<svg
   xmlns:dc="http://purl.org/dc/elements/1.1/"
   xmlns:cc="http://creativecommons.org/ns#"
   xmlns:rdf="http://www.w3.org/1999/02/22-rdf-syntax-ns#"
   xmlns:svg="http://www.w3.org/2000/svg"
   xmlns="http://www.w3.org/2000/svg"
   viewBox="0 0 1109.8933 647.33331"
   height="647.33331"
   width="1109.8933"
   xml:space="preserve"
   id="svg2"
   version="1.1"><metadata
     id="metadata8"><rdf:RDF><cc:Work
         rdf:about=""><dc:format>image/svg+xml</dc:format><dc:type
           rdf:resource="http://purl.org/dc/dcmitype/StillImage" /></cc:Work></rdf:RDF></metadata><defs
     id="defs6" /><g
     transform="matrix(1.3333333,0,0,-1.3333333,0,647.33333)"
     id="g10"><g
       transform="scale(0.1)"
       id="g12"><path
         id="path14"
         style="fill:#191b39;fill-opacity:1;fill-rule:nonzero;stroke:none"
         d="m 2213.46,3213.2 c 0,7.12 -4.74,9.49 -9.5,4.75 -23.74,-14.26 -40.37,-30.88 -47.49,-52.25 14.24,14.24 33.25,35.62 54.62,52.25 0,-2.38 0,-4.75 2.37,-4.75 z m -180.48,-769.46 -2.38,2.38 c -2.37,-4.75 -2.37,-7.13 -4.75,-7.13 l 2.38,-4.75 c 2.37,4.75 2.37,7.13 4.75,9.5 z m -14.26,-28.5 c 0,0 -2.37,2.38 -4.74,2.38 0,-9.51 -4.75,-19 -7.13,-28.5 2.38,9.5 9.5,18.99 11.87,26.12 z m -14.24,54.63 4.75,7.12 -2.38,2.37 -4.75,-7.12 z m -14.25,-16.63 -7.13,-30.87 c 7.13,14.25 9.51,21.37 7.13,30.87 z m -230.37,341.98 c 0,2.38 0,2.38 -2.37,2.38 -7.12,-9.51 -16.62,-16.62 -23.75,-23.75 -2.38,-2.38 0,-2.38 0,-4.75 z m -40.37,-42.74 -2.37,2.37 c -9.51,-7.13 -21.38,-16.63 -30.88,-28.5 2.38,0 2.38,0 4.75,-2.38 9.51,11.88 16.62,21.38 28.5,28.51 z m 75.99,-548.6 c -9.49,-14.25 -16.62,-28.5 -18.99,-45.12 -2.38,-2.38 -4.75,-4.75 -4.75,-7.13 -9.5,-16.62 -16.63,-35.62 -21.37,-54.61 -2.38,-4.76 -2.38,-9.51 -2.38,-14.26 -2.37,-4.74 -7.12,-9.49 -7.12,-14.24 -52.25,-125.87 -95,-256.49 -133,-387.1 l -14.24,-49.88 c 4.74,2.38 7.12,4.75 7.12,7.13 18.99,61.74 40.38,128.24 61.75,189.99 l 35.62,121.11 c 14.25,42.75 33.24,87.87 49.87,132.99 l 28.5,76 z m -116.36,515.34 c 0,0 -2.37,0 0,2.38 -9.5,-11.87 -16.62,-21.38 -26.12,-28.49 -19,-14.26 -33.26,-30.88 -45.13,-49.88 l -28.5,-33.25 c 11.88,9.5 21.38,19 28.5,33.25 19,14.25 33.26,28.5 45.13,49.88 11.87,4.74 18.99,14.24 26.12,26.11 z M 1558,1885.65 c 2.38,4.75 4.75,9.5 4.75,11.88 l -2.37,2.37 c 0,-4.75 -2.38,-9.5 -2.38,-11.88 z m -14.25,-662.59 v 2.38 z m 42.75,679.22 c 30.88,97.36 66.5,192.36 104.49,284.98 l 21.38,61.75 c -42.75,-71.25 -197.12,-524.85 -213.74,-622.22 2.38,9.5 7.13,19 9.5,28.5 z m -246.99,225.6 9.51,14.26 c 0,2.38 -2.38,2.38 -2.38,2.38 -2.38,-4.76 -4.75,-9.51 -11.88,-14.26 2.38,0 2.38,-2.38 4.75,-2.38 z m 30.88,26.13 -7.13,-19 -33.24,-49.87 c 11.87,14.25 26.11,30.87 33.24,49.87 7.13,4.75 11.88,9.51 7.13,19 z m -49.87,-49.88 c 0,2.38 0,2.38 -2.38,2.38 l -7.12,-14.25 c 2.37,0 2.37,0 2.37,-2.37 z m -16.63,-26.11 -2.37,2.37 -7.13,-14.25 2.38,-2.38 z m -23.75,-40.38 7.13,14.25 c -2.37,0 -2.37,0 -4.75,2.38 -2.38,-4.75 -2.38,-9.5 -4.75,-16.63 z m -35.61,-52.24 7.11,14.24 -2.37,2.38 -7.12,-14.25 c 0,0 2.38,0 2.38,-2.37 z m 54.61,54.61 c -26.12,-30.86 -45.12,-66.49 -64.12,-99.74 14.25,19 30.88,40.38 42.75,61.75 7.13,11.87 11.88,26.12 21.37,37.99 z m -75.99,-90.24 c 0,0 -2.37,0 -2.37,2.37 -7.13,-4.75 -9.51,-14.24 -14.26,-21.37 2.38,0 2.38,0 2.38,-2.37 4.75,9.5 9.5,14.25 14.25,21.37 z m 237.49,527.22 c -2.38,-4.75 -7.13,-4.75 -9.51,-9.5 -42.74,-49.87 -83.12,-102.12 -123.49,-151.99 l -30.87,-45.12 c -23.75,-33.25 -47.5,-66.5 -71.25,-97.37 v -2.38 c -16.62,-19 -30.87,-35.62 -40.37,-56.99 16.63,14.24 30.87,35.62 40.37,56.99 l 7.13,2.38 c 14.24,21.37 26.12,37.99 40.37,57 7.12,14.24 16.63,26.11 23.75,40.37 l 9.5,4.75 c 49.86,64.12 99.74,128.24 151.99,192.36 z m -299.24,-408.47 7.13,16.62 c -7.13,-2.38 -9.51,-7.12 -7.13,-16.62 z m 54.62,-166.24 c 0,2.37 -2.37,4.74 -4.75,4.74 -23.75,-40.37 -45.12,-78.36 -64.12,-116.36 h 2.38 z m -80.74,-102.13 c 0,2.38 -2.37,2.38 -2.37,2.38 -2.38,-2.38 -2.38,-7.13 -4.76,-11.87 h 2.38 c 0,2.38 2.38,7.12 4.75,9.49 z m -7.13,227.99 h 4.76 c 7.11,7.12 11.87,19 18.99,28.51 -2.37,0 -2.37,0 -4.75,2.36 -4.75,-11.87 -11.87,-19 -19,-30.87 z m -2.37,-11.88 c 0,0 -2.38,0 -2.38,2.38 -11.87,-16.62 -18.99,-28.49 -28.5,-45.12 l 2.38,-2.38 c 11.88,14.26 19,28.5 28.5,45.12 z M 997.539,3215.57 c 19.001,7.12 35.621,11.87 52.241,19 11.88,2.38 14.25,7.13 9.5,21.37 -21.37,-9.5 -45.12,-14.24 -61.741,-40.37 z M 2351.2,3115.82 c -2.37,-61.74 -14.24,-116.36 -40.37,-170.98 -194.74,-406.1 -394.22,-809.83 -534.34,-1242.05 -47.49,-151.99 -78.37,-313.48 -147.24,-458.36 -7.13,-18.99 -9.51,-18.99 -30.88,-26.11 l 2.38,7.12 c 26.12,57 40.38,116.37 57,173.36 11.87,38.01 21.37,76 33.24,111.62 28.5,83.13 49.88,171 78.38,254.12 64.12,208.98 144.86,410.84 230.35,610.33 2.38,2.38 4.76,7.13 4.76,9.51 l -9.51,-14.26 c -80.74,-175.74 -151.99,-353.86 -213.73,-536.71 -33.25,-97.38 -59.37,-197.12 -90.25,-296.86 -30.87,-99.74 -56.99,-201.87 -97.36,-301.61 l -9.51,-16.62 c -2.37,-7.13 -2.37,-7.13 -16.62,-9.5 -4.75,14.24 2.38,21.37 4.76,30.87 14.24,45.13 33.24,87.87 42.74,133 11.87,49.86 28.49,104.49 45.12,156.74 16.63,64.12 35.62,125.86 57,192.36 21.37,61.74 37.99,128.24 61.74,192.36 57,161.49 102.13,330.1 192.36,477.34 2.38,4.75 2.38,11.88 4.75,19 -4.75,-4.74 -7.11,-7.12 -9.49,-11.87 -68.87,-113.99 -106.87,-244.61 -154.37,-365.72 -38,-106.88 -73.62,-211.37 -106.86,-318.24 -16.63,-52.25 -35.63,-106.87 -47.5,-159.12 -23.75,-87.87 -47.5,-173.36 -78.38,-256.48 -9.49,-26.12 -21.37,-49.87 -35.62,-73.62 4.76,7.13 4.76,14.25 4.76,21.37 -7.13,-7.12 -7.13,-7.12 -14.26,-19 -4.74,-16.62 -4.74,-16.62 -23.75,-14.24 l -21.37,2.37 c -4.74,19 7.12,35.62 4.75,57 -11.87,-14.25 -11.87,-35.62 -23.75,-52.24 -2.38,0 -7.12,2.36 -9.49,4.74 l -9.51,-9.5 c -11.87,7.12 -26.12,11.87 -33.24,19 -4.75,4.75 -7.13,14.25 -9.5,21.37 0,7.13 4.75,19 -4.76,28.51 -4.74,-9.51 -9.49,-16.64 -16.62,-26.13 -16.62,11.87 -23.75,28.5 -28.5,47.5 -4.74,26.11 -4.74,52.24 -2.38,78.37 54.63,391.85 206.62,752.83 382.36,1118.55 42.75,92.62 116.37,206.62 114,213.74 -387.1,-439.35 -455.97,-536.72 -681.59,-911.94 -54.62,-92.63 -104.49,-182.87 -147.24,-284.99 l -90.242,-220.86 c -2.379,-7.13 -4.746,-16.62 -11.875,-23.75 -2.379,-7.13 -4.746,-21.37 -19,-11.87 -2.379,0 -7.129,-4.75 -14.254,-9.5 l 2.379,19 c -2.379,-2.38 -4.75,0 -4.75,0 -4.746,-4.76 -9.496,-7.12 -14.254,-9.5 -7.113,-7.13 -14.242,0 -18.988,11.87 -7.129,-7.13 -14.254,-9.49 -23.75,-2.37 0,-2.38 -7.129,-14.25 -23.75,2.37 -7.125,23.75 -4.746,-4.75 -21.379,47.5 -42.742,498.72 59.371,926.2 118.746,1322.8 v 19 l -9.496,-14.26 C 833.672,2552.99 776.68,2453.24 729.18,2353.5 629.438,2154.01 529.691,1966.4 456.066,1750.28 L 332.582,1389.31 c -7.129,-23.75 -21.383,-42.75 -30.879,-68.87 -2.379,-7.13 -7.125,-14.25 -11.875,-23.75 -4.746,9.5 -7.125,11.88 -9.504,18.99 l -16.621,-9.49 c -2.371,-14.26 2.379,-26.13 14.254,-33.25 -14.254,-42.75 -47.5,-59.37 -83.121,-66.5 v 19 c -4.75,-4.74 -9.496,-7.12 -14.246,-9.5 -2.379,-2.37 -9.504,-2.37 -11.875,0 -4.758,2.38 -4.758,9.5 -4.758,14.25 0,7.13 2.379,11.88 4.758,19 -7.125,0 -16.633,-2.38 -14.254,11.88 -7.125,-7.13 -11.871,-11.88 -14.25,-16.64 -2.371,2.38 -2.371,4.76 -2.371,9.51 -4.746,-4.75 -11.875,-7.13 -19,-11.87 -4.75,4.74 -11.875,7.12 -11.875,11.87 -7.1291,7.13 -11.8752,14.24 -26.1173,9.5 l 14.2421,38 c -9.496,-7.13 -16.625,-11.88 -26.1171,-14.25 -2.3789,2.37 -4.7579,9.5 -7.1289,7.12 -21.3711,-2.38 -23.75,16.62 -33.2461,26.13 -7.125,11.86 -9.5039,23.74 -2.3789,37.99 2.3789,2.38 4.75,7.13 4.75,11.88 -7.129,0 -11.875,4.75 -16.6211,4.75 -7.12895,0 -11.87504,4.74 -11.87504,9.5 -4.75,21.37 -2.37891,42.74 4.74609,61.74 147.24225,444.1 360.97625,940.44 581.84425,1325.17 80.746,142.49 173.363,277.86 265.98,413.23 35.625,49.87 83.121,83.11 140.117,104.49 19,7.13 35.62,9.5 54.62,14.25 16.63,0 33.25,-2.37 45.12,-18.99 l -21.37,-21.38 c 11.88,0 19.01,2.37 23.75,4.74 26.12,2.38 57,-11.87 47.5,-37.99 v -4.75 l 16.62,9.5 c 2.37,-7.13 4.75,-9.5 7.13,-14.25 11.88,-21.38 18.99,-47.49 21.37,-71.24 l -7.13,-45.13 c -35.62,-406.1 -59.37,-596.09 -170.99,-1206.42 270.74,605.58 921.45,1204.05 1125.69,1344.17 l 61.74,35.62 c 16.62,7.13 35.62,7.13 52.25,-4.75 -2.37,-4.76 0,-11.87 0,-19 23.75,11.87 33.25,4.75 42.75,-26.13 4.75,4.75 9.49,7.13 16.62,-2.37 26.13,-33.25 42.75,-66.5 40.37,-109.25" /><path
         id="path16"
         style="fill:#191b39;fill-opacity:1;fill-rule:nonzero;stroke:none"
         d="m 3251.28,2258.5 2.37,2.38 v 2.37 h -2.37 z m -812.2,-249.35 c -14.25,-11.88 -28.5,-19 -40.37,-38.01 26.12,14.26 30.87,19.01 40.37,33.25 v 4.76 c 4.75,2.37 9.5,0 11.88,2.37 2.37,0 2.37,4.74 7.11,11.87 -9.49,-7.13 -14.24,-9.5 -18.99,-14.24 z m -33.25,23.75 -16.63,-19.01 c 4.75,0 7.13,0 9.51,2.37 4.75,2.38 7.12,7.13 11.87,11.88 -2.37,0 -2.37,2.38 -4.75,4.76 z m -94.99,18.99 c 18.99,7.12 16.62,7.12 23.75,23.75 z m -92.63,33.25 c 45.13,35.63 90.25,71.24 135.37,102.12 11.88,7.12 23.75,16.62 33.26,23.74 4.74,4.75 7.11,9.51 9.49,14.26 2.38,2.37 4.75,2.37 7.13,2.37 l -2.38,2.38 -4.75,-4.75 c -4.75,-2.38 -11.87,-2.38 -16.62,-4.75 -38,-26.13 -76,-52.26 -111.62,-80.75 -16.62,-11.88 -28.5,-30.87 -42.75,-45.12 z m 643.59,83.11 h -23.75 c -14.24,-4.74 -30.87,-7.11 -45.12,-9.49 -95,-21.37 -182.87,-59.37 -261.23,-116.37 -99.74,-71.25 -178.12,-163.86 -242.24,-265.98 -40.37,-71.24 -80.74,-173.37 -73.62,-258.86 7.13,-118.75 154.36,-114 239.86,-80.74 47.5,16.62 144.87,75.99 159.12,130.61 7.12,33.25 16.62,64.12 28.5,97.37 40.37,106.86 85.49,211.36 135.37,313.48 l 71.23,147.24 c 7.13,11.88 14.26,23.75 11.88,42.74 z m 470.23,-593.71 c -9.5,-11.87 -21.37,-23.74 -33.25,-33.24 -90.25,-85.5 -175.74,-185.25 -289.74,-237.49 -151.99,-71.24 -325.35,-21.37 -375.23,111.62 0,2.38 -125.86,-92.62 -142.48,-102.12 -137.75,-78.37 -344.36,-30.87 -453.61,78.37 -40.37,40.37 -80.74,99.74 -94.98,151.99 -42.75,144.87 14.24,306.36 92.62,427.47 73.61,114 170.98,223.24 282.6,299.24 104.49,73.61 244.62,151.99 375.23,161.48 73.62,7.13 163.86,-16.62 227.98,-54.61 l 42.75,-23.75 c 14.25,21.37 26.12,42.74 38,64.12 16.63,30.88 42.75,47.5 75.99,56.99 7.13,2.38 14.25,2.38 21.38,2.38 7.13,-2.38 16.62,-4.75 23.75,-9.5 7.12,-2.37 9.5,-9.5 18.99,-16.62 -18.99,-21.37 -40.37,-38 -47.49,-61.75 4.75,-9.5 9.5,-4.74 11.88,0 16.62,18.99 35.61,35.63 54.61,52.25 4.75,-4.75 9.51,-7.13 16.63,-9.51 14.25,-7.11 11.87,-28.49 28.49,-35.62 14.26,-4.75 21.38,-18.99 28.51,-30.87 9.5,-14.25 16.62,-28.49 23.75,-42.75 7.12,-16.62 11.86,-33.24 16.62,-49.86 2.37,-7.13 -2.38,-16.64 -4.76,-26.13 l -21.37,-33.25 c -87.87,-159.11 -166.23,-327.73 -239.86,-493.97 -23.75,-52.25 -45.12,-106.86 -66.49,-161.49 -11.87,-30.87 -47.5,-99.74 -14.25,-130.62 45.12,-42.74 175.74,59.37 208.98,83.12 47.5,38 99.75,97.37 147.25,111.62 h 14.25 c 9.5,-4.74 21.37,-7.12 28.5,-14.25 0,0 16.62,-21.37 4.75,-33.25" /><path
         id="path18"
         style="fill:#191b39;fill-opacity:1;fill-rule:nonzero;stroke:none"
         d="m 3776.11,2080.39 c 2.37,0 2.37,-2.37 2.37,0 l 11.88,7.12 c -2.38,2.38 -4.75,2.38 -4.75,2.38 z m -111.62,-194.74 -4.75,-9.5 c 45.13,-16.63 109.25,-16.63 154.37,4.76 64.12,28.49 116.36,71.23 161.48,125.86 42.75,54.62 73.63,114 85.5,182.86 2.37,14.25 4.75,28.5 -4.74,47.5 -19.01,-7.12 -35.63,-11.87 -49.88,-16.62 -61.74,-26.13 -113.99,-66.5 -161.49,-111.62 -73.63,-71.25 -123.49,-137.75 -180.49,-223.24 z m 71.24,147.25 c -4.75,-2.38 -11.87,-7.13 -16.62,-11.88 -16.62,-19 -33.25,-40.37 -49.87,-61.75 -2.38,-4.75 -9.5,-9.5 -14.25,-14.24 -2.37,-14.26 -9.5,-26.13 -23.75,-33.26 v -14.24 h 2.38 c 0,4.75 0,9.49 -2.38,14.24 19,0 23.75,11.88 28.5,26.13 0,2.37 -2.37,4.75 -4.75,7.13 7.12,-2.38 14.25,-2.38 19,4.74 19,26.12 37.99,49.87 59.37,73.62 0,2.38 0,7.13 2.37,9.51 16.63,14.24 16.63,14.24 26.13,35.62 -11.88,-14.25 -23.75,-19 -26.13,-35.62 z m -16.62,35.62 -4.75,4.75 c -40.37,-45.13 -75.99,-92.62 -102.11,-147.25 33.24,42.76 66.49,87.87 97.36,130.63 2.37,2.36 4.75,4.74 7.13,9.49 z m -83.12,26.12 c -33.25,-23.75 -61.75,-64.12 -73.62,-95 z m -128.24,-9.5 c 11.87,0 16.63,9.5 21.38,14.25 45.11,56.99 97.36,106.87 149.61,154.37 9.5,11.87 19,21.37 30.87,33.24 2.37,2.38 9.5,4.75 4.75,11.87 -16.62,-11.87 -33.24,-21.37 -47.5,-33.24 -16.62,-14.25 -33.24,-28.5 -47.5,-42.75 -14.24,-11.88 -26.11,-26.12 -40.37,-40.37 l -40.37,-47.5 c -9.49,-16.62 -23.75,-28.5 -30.87,-49.87 z m 895.32,-159.12 c -16.62,-23.74 -35.63,-47.49 -57,-68.86 -151.99,-173.38 -280.23,-375.23 -493.97,-515.35 -123.49,-80.74 -287.35,-97.38 -427.47,-45.12 -251.73,94.99 -249.36,377.6 -144.87,584.22 73.63,147.23 180.5,277.85 294.48,394.22 137.74,142.49 353.86,277.86 541.47,144.86 52.24,-37.99 75.99,-83.11 85.5,-130.61 35.62,-201.87 -121.12,-387.1 -263.61,-460.72 -85.5,-45.13 -223.24,-57.01 -318.24,-28.51 -2.36,0 -7.11,0 -11.87,2.38 -4.75,-4.75 -9.5,-9.49 -14.24,-16.62 -40.38,-71.25 -68.87,-137.75 -87.87,-218.49 -9.51,-47.5 -19.01,-132.99 28.49,-170.99 66.5,-49.87 206.62,42.75 263.61,73.62 282.61,197.11 322.99,303.98 491.6,463.1 l 59.37,49.87 c 9.5,7.13 16.62,11.87 26.12,-2.37 2.38,-2.38 11.88,0 16.62,-2.38 23.75,-14.25 28.5,-30.88 11.88,-52.25" /><path
         id="path20"
         style="fill:#191b39;fill-opacity:1;fill-rule:nonzero;stroke:none"
         d="m 5096.53,2061.39 9.5,9.5 c 21.38,23.75 47.5,47.5 66.5,71.25 26.13,19 49.87,42.75 68.87,71.24 2.37,0 4.75,4.75 4.75,4.75 -35.62,-26.13 -142.49,-140.11 -149.62,-156.74 z m 52.25,227.99 c 30.87,35.62 -71.25,-26.13 -97.37,-61.75 -35.62,-33.25 -85.5,-104.5 -104.49,-166.24 0,-2.38 -4.75,-7.12 -2.38,-7.12 78.38,68.86 161.49,182.86 204.24,235.11 z m -270.74,-479.72 c -2.37,0 -2.37,-2.38 -4.75,-2.38 2.38,-2.37 4.75,2.38 4.75,2.38 z m -7.12,-4.75 c -40.37,-30.88 -135.36,-133 -142.49,-149.62 2.38,2.38 7.13,7.12 9.5,7.12 21.38,23.75 45.12,47.5 64.12,71.25 28.5,21.37 52.25,45.12 68.87,71.25 z m -161.49,-99.74 c 26.13,21.37 49.88,45.11 71.25,73.61 0,0 4.74,4.75 2.37,4.75 -35.62,-26.12 -142.49,-140.12 -149.62,-156.74 2.38,2.38 7.13,4.75 9.51,9.5 21.37,21.38 45.12,45.13 66.49,68.88 z m -258.85,99.74 c 14.24,33.24 26.11,64.12 37.99,97.37 2.38,16.62 11.87,28.49 16.62,47.49 4.75,23.75 14.25,47.5 26.13,66.49 9.49,26.13 16.62,45.13 19,73.63 -7.13,-14.25 -11.87,-26.13 -16.63,-42.75 -4.75,-19 -11.88,-35.62 -18.99,-49.87 -4.76,-16.62 -11.88,-30.87 -16.64,-47.5 -18.99,-45.12 -35.61,-92.61 -47.48,-144.86 z m 14.24,294.48 c 2.38,2.37 2.38,7.12 2.38,9.5 -28.5,-57 -102.13,-258.86 -99.75,-287.36 2.37,7.13 7.13,14.25 7.13,19 14.24,40.38 30.87,83.12 45.12,125.87 19,42.75 35.62,85.49 45.12,132.99 z m 1071.06,-182.86 c -16.62,-23.75 -35.62,-38 -56.99,-52.26 -111.62,-90.24 -225.62,-147.23 -370.48,-175.73 -71.25,-16.63 -123.5,-7.12 -187.62,26.12 -7.13,-4.75 -14.24,-9.49 -19,-19 -94.99,-102.11 -185.24,-201.86 -280.23,-296.86 -42.74,-45.11 -123.5,-104.49 -189.99,-106.87 -19,-2.37 -40.37,-2.37 -64.12,2.38 -59.37,7.13 -118.74,30.88 -163.86,73.62 -104.49,97.37 -61.75,244.62 -30.88,363.35 38.01,144.87 87.87,282.61 142.5,425.1 21.37,54.62 45.12,114 66.49,170.99 26.13,49.88 38,97.38 85.5,123.5 2.37,2.37 4.75,2.37 7.13,2.37 23.73,9.5 35.61,0 42.74,-26.12 l 4.74,-19.01 c 0,-2.36 4.76,-2.36 9.51,-4.74 4.75,9.5 16.62,19 26.12,26.13 11.87,-4.75 21.38,-9.51 28.49,-14.26 l 16.64,-35.62 c 7.11,4.76 9.49,7.12 16.62,11.87 23.75,-11.87 42.74,-26.12 45.12,-54.61 0,-2.38 0,-2.38 -2.38,-4.76 0,-2.37 2.38,-2.37 2.38,-2.37 0,2.37 2.38,2.37 2.38,4.75 l -2.38,2.38 c 23.75,-4.76 26.13,-9.51 21.37,-26.13 0,-7.13 -2.37,-14.24 -4.75,-19 -4.75,-4.75 -4.75,-9.5 -4.75,-18.99 9.5,11.87 16.63,14.24 28.5,21.37 7.13,-14.26 0,-23.75 -4.75,-30.88 -21.37,-49.87 -35.62,-99.74 -54.62,-142.48 -38,-78.38 -61.74,-156.75 -92.62,-232.75 -37.99,-102.11 -66.49,-211.35 -97.37,-315.85 0,-14.25 -4.74,-28.5 -9.5,-47.49 9.5,4.75 14.25,4.75 16.63,11.87 78.36,94.99 166.23,166.24 237.48,251.73 28.5,30.87 54.63,59.37 85.49,90.25 7.13,11.87 11.88,21.37 9.51,35.62 -11.88,109.24 28.5,216.11 68.87,311.11 26.12,56.99 75.99,99.74 123.49,147.24 37.99,35.61 66.49,52.25 121.12,78.37 109.24,47.49 256.48,-11.88 244.61,-147.25 -2.37,-54.61 -38,-116.36 -83.13,-170.98 -68.87,-78.37 -268.35,-301.61 -273.1,-306.36 -2.37,-26.13 180.48,7.13 246.98,33.24 95,35.63 128.25,45.13 208.99,106.88 l 14.25,7.12 c 2.37,-4.74 4.75,-9.5 9.5,-16.62 4.75,2.37 11.87,7.12 16.62,4.75 9.51,-4.75 21.38,-11.88 28.5,-19 4.76,-7.13 7.12,-19 14.25,-26.12" /><path
         id="path22"
         style="fill:#191b39;fill-opacity:1;fill-rule:nonzero;stroke:none"
         d="m 5728.24,2080.39 c 2.38,0 2.38,-2.37 2.38,0 l 11.88,7.12 c -2.38,2.38 -4.75,2.38 -4.75,2.38 z m -111.6,-194.74 -4.76,-9.5 c 45.13,-16.63 109.25,-16.63 154.37,4.76 64.12,28.49 116.36,71.23 161.48,125.86 42.75,54.62 73.63,114 85.5,182.86 2.37,14.25 4.75,28.5 -4.74,47.5 -19,-7.12 -35.63,-11.87 -49.88,-16.62 -61.74,-26.13 -113.99,-66.5 -161.49,-111.62 -73.62,-71.25 -123.49,-137.75 -180.48,-223.24 z m 71.23,147.25 c -4.75,-2.38 -11.87,-7.13 -16.62,-11.88 -16.62,-19 -33.24,-40.37 -49.87,-61.75 -2.38,-4.75 -9.5,-9.5 -14.25,-14.24 -2.37,-14.26 -9.5,-26.13 -23.75,-33.26 v -14.24 h 2.38 c 0,4.75 0,9.49 -2.38,14.24 19,0 23.75,11.88 28.5,26.13 0,2.37 -2.37,4.75 -4.75,7.13 7.13,-2.38 14.25,-2.38 19,4.74 19,26.12 37.99,49.87 59.37,73.62 0,2.38 0,7.13 2.37,9.51 16.64,14.24 16.64,14.24 26.13,35.62 -11.87,-14.25 -23.75,-19 -26.13,-35.62 z m -16.62,35.62 -4.75,4.75 c -40.37,-45.13 -75.99,-92.62 -102.11,-147.25 33.24,42.76 66.49,87.87 97.36,130.63 2.37,2.36 4.75,4.74 7.13,9.49 z m -83.12,26.12 c -33.25,-23.75 -61.74,-64.12 -73.62,-95 z m -128.24,-9.5 c 11.87,0 16.63,9.5 21.38,14.25 45.12,56.99 97.36,106.87 149.61,154.37 9.5,11.87 19,21.37 30.87,33.24 2.37,2.38 9.5,4.75 4.75,11.87 -16.62,-11.87 -33.24,-21.37 -47.5,-33.24 -16.62,-14.25 -33.24,-28.5 -47.49,-42.75 -14.25,-11.88 -26.12,-26.12 -40.38,-40.37 l -40.37,-47.5 c -9.49,-16.62 -23.75,-28.5 -30.87,-49.87 z m 895.32,-159.12 c -16.62,-23.74 -35.63,-47.49 -57,-68.86 -151.99,-173.38 -280.23,-375.23 -493.96,-515.35 -123.49,-80.74 -287.36,-97.38 -427.48,-45.12 -251.73,94.99 -249.36,377.6 -144.87,584.22 73.63,147.23 180.5,277.85 294.49,394.22 137.73,142.49 353.84,277.86 541.46,144.86 52.25,-37.99 75.99,-83.11 85.5,-130.61 35.62,-201.87 -121.12,-387.1 -263.61,-460.72 -85.49,-45.13 -223.24,-57.01 -318.23,-28.51 -2.37,0 -7.12,0 -11.88,2.38 -4.75,-4.75 -9.49,-9.49 -14.24,-16.62 -40.37,-71.25 -68.87,-137.75 -87.87,-218.49 -9.51,-47.5 -19,-132.99 28.49,-170.99 66.5,-49.87 206.62,42.75 263.61,73.62 282.61,197.11 322.99,303.98 491.6,463.1 l 59.37,49.87 c 9.5,7.13 16.63,11.87 26.12,-2.37 2.38,-2.38 11.88,0 16.62,-2.38 23.75,-14.25 28.5,-30.88 11.88,-52.25" /><path
         id="path24"
         style="fill:#191b39;fill-opacity:1;fill-rule:nonzero;stroke:none"
         d="m 7452.38,1926.02 -2.38,2.38 -7.13,-9.5 z m -26.13,-23.74 -9.49,-7.13 -2.38,-2.37 c 2.38,0 2.38,0 2.38,-2.38 l 2.36,2.38 c -2.36,0 -2.36,0 -2.36,2.37 l 7.12,4.75 z m -21.37,-21.37 c -2.38,0 -2.38,0 -2.38,2.36 l -9.49,-9.49 v -2.38 c 4.74,2.38 7.12,4.75 11.87,9.51 z m -23.75,-21.39 c -19,-9.49 -47.5,-35.62 -54.62,-49.86 19,16.62 38,33.24 54.62,49.86 z m -85.5,-78.36 -2.37,2.37 c -21.37,-16.62 -42.75,-35.62 -66.5,-54.62 2.38,-2.37 2.38,-2.37 4.75,-2.37 21.38,16.62 42.75,35.62 64.12,54.62 z m -64.12,-175.74 h -2.37 l -7.13,-7.13 c 0,0 2.38,0 2.38,-2.38 z m -14.24,-19 -4.75,4.75 -14.26,-21.37 -11.87,-7.13 c 0,-2.38 2.38,-2.38 2.38,-4.75 2.37,4.75 7.13,9.5 9.49,11.88 7.13,7.12 11.88,11.87 19.01,16.62 z m -47.5,-45.12 c 0,0 0,2.37 -2.38,2.37 l -7.12,-7.12 c 0,-2.38 2.37,-2.38 2.37,-2.38 z m -26.13,-23.75 h -2.37 l -7.13,-7.13 v -2.38 c 2.38,2.38 4.75,2.38 4.75,4.76 2.38,0 4.75,2.37 4.75,4.75 z m -486.84,683.96 c 0,0 0,2.37 -2.38,2.37 -7.12,-7.12 -16.62,-9.5 -19,-21.37 z m -35.62,-33.26 -9.51,-7.11 4.76,-4.76 z m 933.31,-218.48 c -23.75,-33.24 -47.5,-68.86 -75.99,-102.12 -78.37,-92.62 -80.75,-94.99 -168.62,-180.49 -37.99,-37.99 -75.99,-78.36 -113.98,-118.74 -45.13,-49.87 -92.63,-92.62 -149.63,-130.61 -97.36,-64.12 -223.23,-102.13 -334.85,-42.75 -66.49,35.62 -125.87,104.49 -140.12,178.11 -14.24,85.5 23.75,168.62 64.12,242.23 73.63,128.25 149.62,256.49 220.87,389.49 9.5,18.99 18.99,42.74 28.5,64.12 2.37,2.37 4.74,7.11 7.12,16.62 l -16.63,-7.13 c -75.99,-42.75 -142.48,-102.12 -208.98,-154.37 -52.25,-42.74 -99.75,-85.49 -137.74,-140.11 -40.37,-59.37 -185.25,-384.73 -227.99,-482.09 -16.62,-33.25 -33.25,-68.87 -47.5,-104.5 -7.12,-14.25 -11.87,-30.87 -28.49,-40.37 -2.38,0 -4.75,-2.38 -4.75,-2.38 -7.13,-19 -26.13,-21.37 -42.75,-26.11 0,7.11 0,14.24 2.37,21.37 -4.75,-2.38 -7.12,-2.38 -7.12,-4.75 -7.12,-7.13 -14.25,-14.26 -28.51,-11.88 -2.36,0 -7.11,-4.74 -16.62,-11.87 7.13,16.62 11.88,30.86 19,45.12 -19,-2.38 -23.75,-14.26 -33.24,-26.12 l 4.75,26.12 -19,-16.62 c -11.88,7.12 -26.12,11.87 -40.38,19 0,14.24 14.26,28.49 14.26,45.12 l -30.88,-35.63 c -2.38,0 -2.38,0 -4.75,2.38 0,4.75 2.37,7.12 2.37,14.25 -4.75,-2.37 -9.49,-7.13 -16.62,-9.5 -4.75,4.75 -9.5,9.5 -14.24,11.87 -23.75,23.75 -23.75,23.75 -9.51,52.25 2.38,4.75 2.38,9.5 7.13,19 l -14.26,-9.5 c -2.37,0 -4.74,-4.75 -9.49,-7.13 0,2.38 0,4.76 -2.37,7.13 -2.38,-2.37 -7.13,-4.75 -11.88,-9.5 -4.75,11.88 -9.5,21.37 -11.87,30.88 -4.76,16.62 -4.76,33.24 4.75,47.48 9.49,16.64 16.62,35.63 23.75,52.25 94.98,218.49 192.36,444.1 296.85,660.22 28.5,56.99 57,113.99 78.38,173.36 l 11.87,26.12 c 7.12,19 18.99,33.25 37.99,40.37 9.5,4.76 19,9.51 30.88,11.88 14.24,4.75 30.87,4.75 40.37,-14.25 2.37,0 7.13,0 11.88,-2.38 -2.38,-18.99 -16.63,-33.24 -11.88,-56.99 l 40.37,40.37 c 9.5,-7.13 19,-14.24 26.12,-23.75 4.76,-2.37 4.76,-7.13 4.76,-11.87 0,-9.5 4.75,-14.25 14.24,-14.25 9.51,0 14.26,-4.74 16.62,-9.5 11.88,-16.62 28.5,-30.87 30.88,-52.25 0,-2.37 0,-4.75 2.38,-4.75 16.62,-9.49 14.24,-21.37 9.5,-37.99 l -7.13,-21.38 c 7.13,2.38 14.25,7.13 23.75,11.88 0,-19.01 -9.5,-33.25 -14.25,-52.25 7.12,2.38 9.5,4.75 11.88,7.13 73.62,66.5 163.86,121.11 254.1,161.48 85.5,38.01 173.36,45.13 242.24,-28.49 73.62,-78.37 61.74,-173.37 26.12,-263.61 -40.37,-106.87 -99.74,-206.61 -154.36,-303.99 -40.37,-68.86 -78.37,-137.73 -116.37,-204.23 l -7.12,-16.63 c 0,-2.37 2.37,-2.37 2.37,-4.74 l 40.37,14.24 c 71.25,35.62 142.49,71.25 208.99,114 26.12,19 49.87,37.99 76,59.37 99.74,83.12 116.36,83.12 208.98,175.74 23.75,23.75 42.75,47.5 66.5,68.87 4.75,9.5 11.88,16.62 28.5,11.87 -4.76,-9.5 -9.51,-14.25 -11.87,-23.74 v -2.38 l 23.74,21.38 c 7.12,-9.51 16.63,-16.63 23.75,-26.13 7.12,-9.5 11.88,-21.37 2.37,-33.25" /><path
         id="path26"
         style="fill:#191b39;fill-opacity:1;fill-rule:nonzero;stroke:none"
         d="m 8145.81,3039.83 c -40.37,-23.75 -54.61,-38 -56.99,-57 z m 33.26,-1092.44 c 0,2.38 0,2.38 -2.38,4.75 -37.99,-30.86 -76,-64.12 -111.62,-99.74 l 4.75,-4.75 z m -83.12,1099.56 c -19.01,-14.24 -33.25,-33.24 -42.75,-54.61 16.62,16.62 33.24,33.24 42.75,54.61 z m -47.5,-1215.92 c 0,2.38 -2.38,2.38 -2.38,2.38 -4.75,-2.38 -9.5,-7.13 -14.25,-11.88 2.37,0 2.37,0 2.37,-2.38 4.76,4.75 9.51,9.51 14.26,11.88 z m -23.75,1244.42 c -16.62,-7.13 -16.62,-7.13 -19,-18.99 z m -7.13,-1275.3 -4.75,4.76 c -2.38,-2.38 -4.74,-4.76 -9.49,-7.13 2.37,-2.38 2.37,-2.38 2.37,-4.74 z m -40.37,-28.5 -7.13,-7.11 v -2.38 c 2.38,2.38 4.76,4.75 7.13,9.49 z m 26.13,871.58 42.74,59.37 c 42.75,59.37 80.75,123.49 111.62,192.36 11.87,26.13 21.38,54.63 23.75,83.13 2.38,19 4.74,37.99 -2.37,56.99 -19,-9.5 -33.26,-23.75 -45.13,-37.99 -23.75,-35.63 -49.87,-71.25 -71.24,-109.25 -45.13,-80.75 -78.37,-154.36 -114,-239.86 -2.38,-2.37 -2.38,-7.12 -4.74,-11.88 l 52.24,-4.75 z m -38,482.1 c 9.5,9.49 28.49,11.87 35.62,28.5 -35.62,-4.75 -56.99,-21.37 -71.25,-57 z m -64.13,-691.09 9.51,9.5 v 2.38 c -2.38,-2.38 -9.51,-4.75 -14.25,-11.88 z m 54.63,125.87 c -7.13,2.37 -38,4.75 -38,4.75 -4.75,-14.25 -45.12,-92.62 -64.12,-142.49 z M 7673.22,2277.5 c -11.88,-7.12 -142.49,-263.61 -142.49,-313.48 11.87,26.13 132.99,289.74 142.49,313.48 z m -49.87,68.87 c -11.87,-7.12 -140.12,-296.85 -142.49,-313.47 11.87,26.11 132.99,289.72 142.49,313.47 z m -216.11,-1047.31 -73.63,35.62 c -30.86,16.63 -59.37,38.01 -80.74,66.5 -19,21.37 -37.99,45.12 -45.12,76 -9.51,35.62 -9.51,71.24 -4.75,106.86 4.75,40.38 14.25,80.75 28.5,118.75 18.99,56.99 37.99,116.36 61.74,170.99 45.12,109.24 163.87,403.72 208.99,508.22 23.75,56.99 49.87,113.98 73.62,170.99 7.13,14.24 11.88,26.12 16.62,37.99 4.75,7.13 7.13,16.62 11.88,28.5 -47.5,4.75 -90.25,9.5 -132.99,0 -30.88,-7.13 -54.63,-23.75 -68.88,-47.5 l 7.13,-9.5 c 4.75,-11.87 2.38,-16.62 -7.13,-21.37 -21.37,-7.12 -52.25,21.37 -56.99,42.75 -2.37,7.12 -2.37,16.63 0,21.38 4.74,21.37 19,35.62 33.25,47.49 33.25,28.5 71.24,38 113.99,38 42.75,0 85.49,-4.75 128.24,-7.13 h 11.88 l 16.62,38 c 38,87.87 75.99,170.99 116.37,254.11 28.49,59.37 61.75,113.99 102.12,163.86 30.88,38 66.49,68.88 109.24,95 26.13,14.25 52.25,16.62 80.74,14.25 49.88,-9.5 90.25,-30.87 130.62,-57 28.5,-18.99 52.25,-40.37 73.62,-64.12 28.51,-35.63 38,-76 28.51,-118.74 -21.38,-87.87 -54.63,-170.99 -104.51,-246.99 -28.49,-45.12 -56.99,-75.99 -87.87,-118.74 l -11.87,-16.62 c 16.63,-2.38 78.37,-4.75 109.25,-2.38 35.62,0 61.74,21.38 71.25,28.5 7.11,2.37 11.87,4.75 21.37,9.5 -2.38,-4.75 -2.38,-7.13 -2.38,-9.5 0,-2.38 -2.37,-4.75 -2.37,-7.12 h 4.75 c 2.38,2.37 7.12,4.74 11.87,9.49 4.75,-4.75 9.5,-7.12 14.25,-9.49 14.25,-9.51 11.87,-38.01 0,-49.88 -47.49,-56.99 -125.87,-45.12 -192.37,-45.12 -16.62,0 -40.37,0 -83.11,2.38 -61.75,-85.5 -135.37,-182.87 -242.24,-265.99 -4.75,-4.75 -9.49,-9.5 -11.87,-16.62 -54.63,-130.62 -154.37,-377.6 -208.99,-505.84 -21.38,-54.63 -42.75,-111.62 -61.75,-166.25 -11.87,-42.75 -42.74,-113.99 -11.87,-140.11 28.5,-23.75 111.62,14.25 113.99,16.62 163.87,104.49 280.24,249.36 420.35,372.85 35.63,33.26 71.25,66.5 106.87,102.12 9.5,9.5 19,21.37 28.5,33.25 l 90.24,87.87 c 2.38,2.38 9.51,4.75 14.25,9.5 0,-2.37 2.38,-2.37 2.38,-4.75 -2.38,-4.75 -2.38,-11.88 -7.12,-18.99 9.49,4.74 14.24,11.87 19,16.62 l 14.24,-7.13 c 14.25,-9.49 19,-23.75 9.5,-38 -9.5,-16.62 -21.37,-30.87 -35.62,-45.12 -52.24,-59.37 -106.87,-118.75 -163.86,-178.11 64.12,66.49 -372.86,-415.6 -334.86,-382.36 -59.37,-52.24 -125.87,-90.25 -197.11,-118.74 -40.38,-16.62 -80.75,-16.62 -123.49,-9.5 -7.13,0 -16.63,2.38 -26.13,0 -9.5,-2.38 -16.63,0 -26.12,4.75" /><path
         id="path28"
         style="fill:#9b1662;fill-opacity:1;fill-rule:nonzero;stroke:none"
         d="m 4355.55,808.5 -1.32,1.309 c -3.95,-2.629 -6.58,-5.258 -9.21,-7.887 l 1.32,-1.32 z m -35.54,-92.148 c 2.63,3.949 5.26,6.578 7.89,9.218 0,0 0,1.309 -1.31,1.309 -5.27,-6.578 -10.53,-11.84 -15.8,-17.109 1.32,0 1.32,-1.309 1.32,-1.309 z m 21.06,80.296 v 1.321 c -11.85,-10.539 -27.64,-32.91 -44.75,-56.61 28.95,35.539 31.58,42.121 44.75,55.289 z m -76.35,165.864 c 0,2.629 0,3.949 -1.31,6.578 l -1.32,-6.578 z m -28.96,-306.711 c -6.58,-7.899 -11.84,-14.481 -17.11,-18.43 0,-1.312 0,-1.312 1.32,-1.312 5.26,3.941 10.53,11.843 15.79,19.742 z m -18.42,-90.832 c -1.32,0 -1.32,1.32 -1.32,1.32 -1.32,-1.32 -2.63,-2.629 -5.26,-3.949 1.31,0 1.31,-1.32 1.31,-1.32 z m -26.33,35.543 c 0,0 0,1.32 -1.32,1.32 l -7.9,-7.902 c 1.32,0 1.32,-1.309 1.32,-1.309 z m 15.8,-42.121 -26.33,-23.7 c 10.53,3.957 22.37,15.801 26.33,23.7 z m -34.23,23.699 3.95,3.949 c -1.32,0 -1.32,0 -1.32,1.313 -1.31,-1.313 -2.63,-2.633 -3.95,-5.262 z m -11.85,-10.539 c 1.31,1.32 2.64,1.32 2.64,2.629 v 1.32 l -3.96,-3.949 z m -101.36,473.889 c -28.96,-17.12 -56.6,-38.17 -81.61,-61.87 l 1.31,-1.32 c 26.33,21.07 52.66,42.13 80.3,63.19 z M 3818.48,778.219 c -6.58,-14.481 -73.71,-160.598 -78.98,-173.758 6.59,3.949 77.66,164.551 78.98,173.758 z m -78.98,222.471 c -1.32,0 -1.32,1.31 -1.32,1.31 -2.63,-1.31 -5.26,-2.641 -6.58,-3.961 V 996.73 Z M 3596.02,890.109 c -6.58,-14.48 -73.72,-160.597 -78.98,-173.757 6.58,3.949 77.66,164.546 78.98,173.757 z m -27.65,38.18 c -6.58,-14.488 -73.7,-160.598 -78.97,-173.758 6.58,3.949 78.97,146.11 78.97,173.758 z m 173.77,-431.758 -9.22,-9.222 c -5.27,-3.95 -9.22,-2.637 -13.16,2.632 0,1.309 -1.32,2.629 -1.32,3.95 -3.95,9.218 -3.95,9.218 -13.16,10.531 l -9.22,-7.891 c -5.27,5.258 -11.85,9.211 -19.74,7.891 -3.95,9.219 5.26,14.476 5.26,22.379 -6.58,-5.27 -11.84,-10.531 -17.11,-15.801 -1.31,2.641 -2.63,3.949 -2.63,6.582 -2.63,-1.312 -5.27,-1.312 -9.22,-2.633 -3.95,5.27 -9.21,10.531 -14.48,15.793 -6.58,6.578 1.32,13.168 -1.31,19.75 -2.64,0 -5.27,1.317 -7.9,1.317 -5.26,0 -6.58,3.953 -7.9,7.902 -5.27,13.16 -3.94,26.328 2.64,38.168 11.84,25.023 23.69,48.703 36.86,72.402 19.74,39.489 63.17,138.219 82.93,176.391 9.21,19.738 21.05,38.18 30.26,57.918 9.22,21.058 36.86,69.769 44.76,89.512 5.26,9.218 9.22,19.748 11.85,30.278 -2.63,0 -5.27,-1.32 -7.9,-2.64 -42.13,-23.701 -96.09,-81.611 -130.32,-114.521 -15.79,-14.481 -26.32,-32.91 -35.54,-52.649 -25.01,-50.019 -75.03,-147.429 -98.72,-197.461 -18.43,-39.488 -35.55,-78.98 -52.66,-119.789 -9.21,-19.738 -23.69,-34.211 -40.8,-47.379 -3.95,-2.632 -9.22,-2.632 -13.16,-5.269 -1.32,2.637 -2.64,5.269 -2.64,7.898 -5.27,-2.629 -10.53,-9.211 -17.11,-3.949 l 7.89,19.75 -1.31,1.32 c -5.27,-5.269 -11.85,-10.531 -18.43,-18.441 1.32,5.281 3.95,9.23 5.27,13.172 h -1.32 c -3.95,-2.633 -6.58,-6.582 -10.53,-10.531 -6.58,3.949 -11.85,6.589 -18.43,9.218 0,2.633 0,5.262 -1.32,6.582 -13.16,-1.32 -28.95,9.207 -31.59,21.051 -1.32,5.27 -3.95,9.227 -9.22,11.86 -1.31,1.308 -3.94,3.949 -3.94,6.578 -7.9,22.371 -10.53,46.07 0,68.441 13.16,27.649 25.01,55.301 36.86,82.93 6.58,13.168 11.84,26.328 18.42,38.179 11.85,27.641 50.03,101.36 63.19,127.68 14.48,30.281 28.96,60.559 44.75,90.828 18.43,39.492 38.18,78.982 57.92,117.152 13.17,23.7 35.54,34.23 60.56,39.5 6.58,1.31 14.47,-2.64 21.05,-3.95 5.27,-1.32 5.27,-3.95 5.27,-9.22 -10.53,-1.31 -1.32,-7.89 5.27,-3.94 2.63,3.94 7.9,5.26 11.85,1.31 3.94,-2.63 10.52,-3.95 9.21,-11.84 -1.32,-1.32 1.31,-2.64 1.31,-5.28 0,-1.31 -1.31,-2.63 -1.31,-5.26 2.63,2.63 5.26,5.26 9.21,7.9 5.26,-5.27 10.54,-10.53 14.49,-17.11 6.58,-10.53 14.47,-21.06 15.79,-35.54 0,-5.27 3.95,-10.53 6.58,-17.11 6.58,3.95 13.17,9.21 18.43,13.16 19.74,14.47 57.92,56.6 80.3,61.87 14.48,3.95 27.64,6.58 42.12,7.9 9.22,1.31 18.43,-1.32 26.32,-7.9 10.53,-5.27 19.76,-11.85 28.97,-19.75 21.05,-17.11 35.54,-39.49 44.75,-64.5 0,-1.31 1.32,-1.31 1.32,-2.63 2.63,1.32 5.26,2.63 6.58,3.95 l 84.24,67.13 c 26.33,18.43 53.97,31.59 84.25,38.17 14.48,2.64 28.96,0 39.49,-10.53 l 5.27,-3.94 c 32.91,-19.75 56.6,-48.71 69.76,-85.57 2.64,-7.89 2.64,-18.429 3.95,-27.64 0,-3.949 -1.31,-7.898 -2.63,-13.16 h 1.32 1.31 l 7.9,-5.269 c -1.32,-2.629 0,-6.59 -1.32,-10.532 -10.53,-44.757 -77.66,-192.179 -97.4,-232.988 -17.12,-32.91 -34.23,-65.82 -51.34,-97.41 -1.32,-2.641 -2.64,-6.59 -5.27,-10.539 5.27,1.32 9.22,1.32 11.85,1.32 17.11,2.629 31.59,7.91 46.07,17.117 39.49,26.321 114.52,118.473 139.53,159.282 9.21,14.468 19.75,27.629 36.86,48.699 l 17.11,15.789 c 3.95,3.953 10.54,-1.309 14.49,-5.258 -3.95,-7.902 -11.86,-13.16 -15.81,-21.07 5.27,5.281 11.86,9.23 17.12,14.488 6.58,5.262 9.21,3.953 10.53,-5.258 3.95,-6.582 5.26,-3.949 5.26,-10.539 0,-1.32 -7.89,-23.691 -9.21,-26.32 l -19.75,-43.442 c -22.37,-50.019 -90.82,-131.64 -129,-180.351 -11.84,-14.469 -25,-23.688 -38.17,-35.527 -19.74,-21.071 -51.34,-48.711 -89.51,-56.61 -36.86,-7.902 -102.67,1.317 -143.48,39.488 -19.75,19.75 -28.96,42.122 -28.96,69.77 0,52.652 19.75,97.41 48.7,155.332 l 98.73,205.34 c 9.21,17.117 15.79,35.539 22.37,53.978 -5.26,1.31 -7.89,-2.63 -11.84,-3.95 -26.33,-14.489 -51.34,-31.591 -75.03,-51.341 l -42.13,-35.539 c -6.58,-5.269 -10.53,-11.851 -14.47,-19.75 -13.16,-28.961 -46.07,-88.191 -61.88,-117.148 C 3879.04,725.57 3826.39,609.73 3798.74,554.441 L 3776.36,511 l -7.9,-10.52 c -3.95,-2.64 -6.58,-5.269 -9.21,-9.23 -5.27,-5.258 -11.85,-5.258 -19.75,-7.891 1.31,3.95 1.31,7.891 2.64,13.172" /><path
         id="path30"
         style="fill:#9b1662;fill-opacity:1;fill-rule:nonzero;stroke:none"
         d="m 4966.32,1038.85 c -5.27,-7.89 -6.58,-14.47 -1.32,-21.05 3.95,3.94 5.26,10.52 1.32,21.05 z m -94.78,34.23 c 2.63,3.95 5.27,7.89 2.63,14.48 l -13.16,-13.17 c -5.27,-3.94 -6.59,-7.89 -5.27,-14.47 z m -17.12,-285.65 c -11.84,-23.692 -23.68,-46.071 -31.58,-69.758 13.16,21.058 31.58,60.547 31.58,69.758 z m -11.84,18.429 c -15.79,-27.64 -30.28,-55.277 -40.81,-86.871 15.8,28.961 30.28,56.602 40.81,86.871 z m -78.98,-219.82 c 3.95,0 6.58,1.313 7.89,6.582 0,2.629 0,6.578 1.33,10.527 5.26,5.262 7.9,10.524 7.9,21.063 l -7.9,-21.063 -9.22,-17.109 c -1.32,-3.949 -1.32,-6.578 -2.63,-11.859 5.26,3.949 3.94,7.91 2.63,11.859 z m -2.63,35.531 c 1.31,3.961 3.94,7.91 5.26,11.852 h -1.32 c -2.63,-3.942 -3.94,-7.891 -5.26,-11.852 z m -5.27,-63.179 c 0,1.32 0,2.629 1.32,3.949 h -1.32 c -1.31,-1.32 -1.31,-2.629 -1.31,-3.949 z m -10.53,26.328 11.85,26.32 c -1.32,1.32 -1.32,1.32 -2.63,1.32 l -11.85,-27.64 z m -6.58,-14.481 3.95,6.582 c -1.31,0 -2.63,0 -2.63,1.309 -1.32,-2.629 -2.63,-5.258 -2.63,-7.891 z m 6.58,252.731 c -10.52,-13.16 -19.75,-32.91 -18.43,-40.797 6.59,14.476 11.85,27.637 18.43,40.797 z M 4618.8,1009.9 c -6.58,-6.58 -6.58,-6.58 -1.31,-10.541 0,2.641 0,5.271 1.31,10.541 z m 0,13.16 c -2.63,-2.63 -5.26,-3.95 -9.21,-5.26 5.27,-5.27 7.9,-3.95 10.53,-1.32 1.32,1.32 0,3.95 -1.32,6.58 z m -26.33,-855.619 c 18.44,35.539 35.55,71.079 48.71,109.25 5.27,11.848 9.22,25.02 14.48,38.18 l 5.27,9.211 c 7.89,21.059 17.11,40.797 25,61.867 1.32,1.321 1.32,3.949 1.32,5.27 -7.9,-15.797 -15.79,-31.598 -21.06,-48.707 -3.95,-9.211 -6.58,-18.43 -10.53,-27.641 l -3.94,-6.582 c -3.95,-10.527 -7.91,-21.059 -13.18,-31.598 -21.05,-42.121 -42.12,-85.562 -61.86,-127.679 -1.31,-1.321 -2.63,-2.641 -2.63,-3.953 -1.32,-2.629 -1.32,-3.95 -1.32,-5.27 0,0 1.32,0 2.64,-1.309 5.26,10.532 11.84,19.75 17.1,28.961 z m -17.1,17.11 c 15.79,28.961 31.59,57.918 44.75,88.187 15.79,42.133 34.23,84.254 50.02,126.371 1.32,2.633 2.63,5.27 2.63,7.903 h -1.31 c -11.85,-26.321 -21.06,-52.653 -32.92,-78.973 -10.52,-26.328 -22.37,-52.668 -35.54,-77.668 -11.84,-26.332 -25,-51.351 -38.16,-76.351 0,-1.321 1.31,-1.321 1.31,-1.321 3.95,3.953 6.58,7.903 9.22,11.852 z m -2.64,100.039 c 0,0 -1.31,1.32 -2.63,1.32 -14.49,-31.59 -30.28,-61.871 -46.07,-93.469 1.32,0 1.32,0 2.63,-1.312 17.11,30.281 34.23,60.562 46.07,93.461 z m -32.91,804.29 c -19.74,-9.22 -31.59,-22.38 -34.22,-40.81 10.52,13.16 26.33,21.06 34.22,40.81 z m -30.28,-797.7 c 0,0 -1.31,0 -1.31,1.312 l -10.53,-22.383 c 1.32,0 1.32,0 2.63,-1.32 2.63,7.902 6.58,14.481 9.21,22.391 z m -47.38,-125.059 c 14.48,30.27 30.28,61.871 46.07,93.461 l 23.7,57.918 c 0,0 -1.32,0 -1.32,1.309 L 4437.15,137.16 c 1.32,0 1.32,-1.308 2.63,-1.308 7.9,9.207 15.8,18.418 22.38,30.269 z m -22.38,56.598 c 25.01,51.34 88.2,181.66 90.83,188.25 l -13.17,-1.328 c -69.76,-2.629 -163.22,-22.371 -219.83,-51.34 -56.6,-28.949 -101.35,-96.09 -103.98,-161.91 -1.32,-50.02 36.86,-109.2504 94.77,-111.8793 85.56,-2.6328 119.79,72.3863 151.38,138.2073 z m -258.01,98.73 c -11.84,-11.847 -19.74,-26.32 -23.69,-43.437 z m -63.18,-117.148 c 3.95,90.828 72.4,161.898 146.11,204.019 88.21,50.032 190.88,65.821 289.6,78.989 -61.86,6.582 -119.79,-6.579 -180.34,15.8 -48.7,18.422 -88.19,51.332 -93.45,105.301 -5.27,57.93 27.64,125.051 48.7,176.391 36.86,90.828 76.35,182.98 122.42,268.539 17.11,30.27 39.49,51.33 75.03,64.49 6.58,2.64 14.48,2.64 22.37,1.32 5.27,-1.32 5.27,-1.32 6.58,-9.21 14.49,5.26 26.34,0 23.7,-17.11 1.32,3.95 3.95,6.58 5.27,9.21 11.84,-6.58 18.42,-15.79 23.7,-23.7 6.58,-10.53 10.52,-21.05 13.16,-32.9 2.63,-6.59 2.63,-14.48 3.94,-22.38 5.27,-35.54 -23.69,-76.349 -36.85,-107.951 -18.43,-42.117 -76.35,-172.437 -93.46,-213.238 -15.79,-36.851 -86.88,-151.379 -19.75,-171.129 61.87,-18.422 101.36,27.649 126.37,77.668 34.22,68.449 63.19,139.539 93.46,209.301 18.43,40.809 92.15,197.449 107.94,240.889 11.85,28.96 26.33,51.34 57.92,61.87 9.22,2.63 18.43,2.63 27.64,-2.64 -1.32,-2.63 -1.32,-5.26 -2.63,-10.52 l 9.21,3.94 c 7.91,5.27 13.17,1.32 18.43,-2.63 3.95,-3.95 6.59,-9.21 3.95,-15.79 v -5.27 c 2.64,5.27 5.27,9.22 9.22,13.16 3.94,-2.63 7.89,-5.26 11.84,-9.21 14.49,-11.85 26.33,-26.33 31.59,-44.75 13.17,-50.03 -75.03,-221.158 -94.77,-265.908 -31.59,-72.391 -68.45,-142.161 -98.72,-214.563 -6.59,-11.848 -10.54,-26.32 -15.8,-39.488 -1.32,-1.321 -1.32,-2.641 -1.32,-5.27 3.95,1.321 6.58,3.949 10.53,3.949 42.12,2.629 100.05,34.231 122.42,44.758 105.31,59.242 132.96,114.524 156.65,155.332 26.33,44.75 61.87,106.629 78.98,139.532 3.95,6.578 6.58,13.168 13.16,15.796 2.63,-9.218 -3.95,-15.796 -1.32,-25.019 2.63,3.953 3.95,10.531 6.58,15.801 1.32,2.629 5.28,2.629 5.28,2.629 3.94,-9.207 11.84,-7.899 14.47,-21.059 0,0 1.32,0 1.32,-2.629 l -1.32,-13.16 c 1.32,0 2.63,1.32 5.27,3.949 -2.64,-11.859 -5.27,-21.07 -9.22,-30.281 -19.75,-61.859 -61.87,-129 -85.56,-165.859 -25.01,-39.489 -93.46,-123.739 -346.19,-210.622 -2.65,-1.308 -6.59,-5.257 -7.91,-7.886 -5.26,-7.903 -7.9,-17.121 -11.84,-26.332 C 4663.56,287.23 4625.38,146.371 4526.66,66.082 4452.94,5.53125 4351.59,-16.8516 4260.75,13.4219 4177.82,41.0703 4113.33,114.781 4118.59,204.301" /><path
         id="path32"
         style="fill:#9b1662;fill-opacity:1;fill-rule:nonzero;stroke:none"
         d="m 6481.38,1007.27 c 1.31,1.31 1.31,1.31 1.31,2.63 l -1.31,1.31 -6.59,-6.58 c 0,0 1.32,0 1.32,-1.31 z m -34.23,-28.969 c -13.16,-3.942 -23.69,-14.469 -27.64,-28.961 z m -14.48,-107.942 c 14.48,23.7 27.65,47.403 40.81,72.403 5.26,11.847 7.9,23.699 11.84,36.859 1.32,2.629 0,6.578 1.32,11.84 l -15.79,-9.211 c -18.43,-11.84 -34.23,-28.961 -43.44,-50.02 l -11.85,-25.011 c 0,2.633 -1.31,5.261 -3.94,3.953 l 3.94,-3.953 c 0,-5.27 -1.31,-10.528 -1.31,-17.11 -1.32,-18.429 -1.32,-22.379 14.47,-26.328 z m -5.26,121.102 c 0,1.32 -1.32,1.32 -1.32,1.32 -9.21,-6.582 -14.47,-18.422 -21.06,-28.949 1.31,0 1.31,0 1.31,-1.32 z m -43.44,14.489 -1.32,1.32 -6.58,-7.911 c 1.32,0 1.32,0 2.63,-1.32 1.32,2.651 2.64,5.281 5.27,7.911 z m -5.27,-231.68 c 0,0 -1.31,0 -1.31,1.32 -1.32,-2.641 -3.95,-5.27 -5.27,-6.578 l 1.32,-1.321 c 2.63,1.321 3.95,3.95 5.26,6.579 z m -13.17,-15.79 c 0,1.309 0,1.309 -1.31,2.629 -3.95,-5.257 -9.21,-10.527 -14.48,-15.8 1.32,0 1.32,-1.321 1.32,-1.321 5.26,3.961 10.53,9.223 14.47,14.492 z m 7.91,298.81 c -14.49,-1.32 -31.59,-14.49 -32.91,-27.65 10.53,9.21 26.32,13.16 32.91,27.65 z m -26.33,-317.251 v 1.32 c -2.63,-2.629 -5.26,-5.269 -7.9,-6.578 l 1.32,-1.32 c 2.63,1.32 5.26,3.949 6.58,6.578 z M 6330,722.93 l 3.95,3.949 c 0,0 0,1.32 -1.32,1.32 -1.31,-1.32 -2.63,-2.629 -3.94,-5.269 z m -11.85,-11.84 c -1.32,0 -1.32,1.32 -1.32,1.32 -1.31,-1.32 -2.63,-2.64 -2.63,-3.949 1.32,0 2.63,1.309 3.95,2.629 z m -123.74,209.301 v 2.629 c 0,-1.309 -1.32,-1.309 -1.32,-2.629 z m -46.07,111.879 v 18.44 c -7.9,-6.58 -15.79,-18.44 -17.11,-26.33 z m -371.21,26.33 c 2.64,2.63 3.96,3.95 5.27,6.58 1.32,-1.31 3.95,-3.95 3.95,-5.26 0,-2.63 -1.31,-3.95 -3.95,-3.95 -1.31,1.32 -2.63,2.63 -5.27,2.63 z M 5565.2,567.602 c -44.76,81.617 -1.32,175.07 34.23,251.418 35.54,75.039 75.03,147.441 114.52,221.15 l 10.53,19.75 c 7.89,15.79 21.07,25.01 35.54,31.59 7.9,2.63 15.79,1.32 22.38,-5.26 1.32,-1.32 2.64,-1.32 6.58,-1.32 -3.94,-9.22 -9.21,-17.12 -13.17,-25.01 1.32,0 1.32,0 1.32,-1.32 l -2.63,-2.63 c 1.31,0 1.31,-1.32 2.63,-1.32 1.33,1.32 3.96,0 5.27,1.32 1.32,0 1.32,-1.32 2.64,-1.32 6.58,6.58 11.84,14.48 19.74,21.06 6.58,-3.95 11.84,-7.9 18.43,-13.16 -1.32,-2.63 -2.64,-5.26 -3.96,-10.53 2.64,2.63 3.96,2.63 6.59,3.95 l -3.95,-10.53 h 1.32 c 2.63,2.63 6.58,5.27 10.53,7.9 l 3.95,-3.95 c 6.58,-7.91 17.1,-14.49 19.74,-26.33 0,-2.63 2.63,-2.63 3.95,-3.95 6.59,-5.26 7.9,-9.21 5.27,-17.11 -3.95,-7.898 -6.59,-14.48 -10.54,-23.699 9.22,1.32 10.54,14.48 19.75,15.801 -2.63,-1.321 -48.7,-102.672 -53.97,-113.204 -26.33,-46.066 -52.66,-92.148 -73.71,-142.168 -14.49,-34.23 -67.14,-119.789 -47.39,-157.96 26.32,-51.34 132.95,7.902 163.23,31.589 5.26,3.95 7.89,7.891 9.21,14.481 3.95,15.801 6.58,32.91 13.16,48.711 11.84,27.629 23.7,53.961 36.86,80.301 25.01,50.007 72.4,132.937 98.72,182.957 21.07,39.492 44.76,76.351 65.82,115.841 7.9,14.48 22.37,23.69 35.54,30.28 11.85,3.95 22.38,1.32 32.91,-6.59 l -11.85,-14.47 v -1.32 c 2.63,0 3.95,1.32 5.27,1.32 0,1.31 1.31,2.63 1.31,2.63 7.91,-5.27 13.17,2.63 19.75,2.63 2.63,1.32 6.58,-1.32 9.21,-2.63 2.64,-1.32 6.58,-5.27 9.22,-7.9 -1.32,-1.31 -1.32,-3.95 -2.64,-6.58 h 6.58 c -3.94,-3.95 -6.58,-6.58 -7.89,-10.54 -2.63,-3.94 -3.95,-6.58 -3.95,-11.84 6.58,6.58 11.84,14.49 17.11,21.07 1.33,-1.32 2.64,-1.32 2.64,-1.32 l 17.11,-19.75 c 1.32,-3.95 1.32,-10.53 2.63,-14.48 1.32,0 2.63,1.32 5.27,2.64 2.63,-9.22 6.58,-17.11 0,-26.339 -9.22,-14.469 1.31,-1.313 -7.9,-15.789 1.32,0 1.32,-1.313 1.32,-1.313 1.31,0 2.63,1.313 3.94,1.313 0,0 0,1.32 2.64,2.629 5.26,5.269 3.94,1.32 10.52,9.219 1.32,-9.219 -2.63,-14.481 -6.58,-21.059 -3.94,-9.223 -10.52,-18.43 -15.79,-28.961 -17.12,-28.969 -32.91,-59.23 -50.02,-88.199 l -55.29,-105.313 c -18.43,-35.527 -56.6,-106.617 -71.08,-144.789 l -7.9,-25.019 h 13.17 c 132.95,0 235.62,110.582 319.86,204.039 1.32,2.633 3.95,3.953 5.28,6.582 l 2.63,3.949 c -5.28,6.59 -11.86,11.852 -18.44,15.801 -23.68,14.469 -44.75,32.91 -59.23,57.91 -3.95,7.898 -9.21,14.488 -13.17,22.391 -13.16,26.32 -18.42,52.648 -14.47,80.289 9.21,64.499 65.82,136.899 127.68,144.799 51.34,6.58 117.16,-13.16 135.58,-68.46 21.07,-61.859 1.32,-127.679 -31.58,-179.019 -1.32,-3.941 -3.96,-6.582 -6.59,-11.84 17.12,2.629 46.08,11.84 46.08,11.84 0,0 68.44,39.488 101.35,64.508 17.11,13.16 35.55,26.32 53.97,39.492 2.63,2.629 5.26,6.578 11.84,3.949 -2.63,-2.629 -3.94,-6.578 -5.26,-10.531 3.95,2.633 7.91,3.953 10.54,6.582 14.47,9.211 7.89,-30.281 5.26,-35.539 -6.58,-14.481 -18.43,-21.07 -30.28,-30.281 -25.01,-22.371 -56.6,-44.762 -82.93,-64.5 -51.33,-38.172 -101.35,-63.192 -164.54,-64.5 -2.63,-1.321 -6.58,-2.629 -7.9,-5.27 l -59.23,-64.5 c -64.5,-71.082 -131.64,-144.801 -213.25,-193.5 -77.66,-46.07 -202.71,-61.871 -259.32,32.91 -1.32,3.949 -3.95,6.578 -6.58,9.211 -3.95,-2.633 -7.9,-6.582 -11.85,-10.523 -15.79,-11.86 -28.96,-23.699 -44.75,-34.227 -86.88,-57.933 -215.88,-32.91 -268.54,61.86" /><path
         id="path34"
         style="fill:#9b1662;fill-opacity:1;fill-rule:nonzero;stroke:none"
         d="m 7232.99,1015.16 1.31,1.32 v 1.32 h -1.31 z M 6782.81,876.949 c -7.9,-6.59 -15.81,-10.539 -22.39,-21.07 14.49,7.902 17.12,10.531 22.39,18.43 v 2.64 c 2.63,1.321 5.26,0 6.58,1.321 1.31,0 1.31,2.628 3.94,6.582 -5.26,-3.954 -7.89,-5.27 -10.52,-7.903 z m -18.44,13.16 -9.21,-10.527 c 2.63,0 3.95,0 5.26,1.316 2.63,1.313 3.95,3.954 6.58,6.582 -1.31,0 -1.31,1.309 -2.63,2.629 z m -52.65,10.532 c 10.53,3.949 9.21,3.949 13.16,13.16 z m -51.34,18.429 c 25.01,19.739 50.02,39.481 75.04,56.602 6.58,3.949 13.16,9.207 18.42,13.16 2.63,2.629 3.95,5.27 5.27,7.898 1.31,1.309 2.63,1.309 3.94,1.309 l -1.31,1.32 -2.63,-2.629 c -2.64,-1.32 -6.58,-1.32 -9.21,-2.628 -21.07,-14.481 -42.13,-28.961 -61.88,-44.762 -9.21,-6.578 -15.79,-17.11 -23.69,-25 z m 356.73,46.071 h -13.16 c -7.9,-2.629 -17.11,-3.942 -25.02,-5.262 -52.65,-11.848 -101.35,-32.91 -144.79,-64.508 -55.28,-39.492 -98.72,-90.82 -134.26,-147.422 -22.39,-39.488 -44.76,-96.097 -40.81,-143.488 3.95,-65.813 85.56,-63.18 132.95,-44.75 26.33,9.211 80.3,42.121 88.19,72.398 3.95,18.422 9.21,35.539 15.79,53.973 22.39,59.227 47.4,117.148 75.04,173.75 l 39.49,81.617 c 3.95,6.582 7.89,13.16 6.58,23.692 z m 260.63,-329.082 c -5.26,-6.579 -11.84,-13.157 -18.42,-18.438 -50.02,-47.383 -97.41,-102.672 -160.6,-131.629 -84.24,-39.492 -180.33,-11.851 -207.98,61.867 0,1.321 -69.76,-51.328 -78.98,-56.609 -76.34,-43.441 -190.87,-17.109 -251.42,43.441 -22.38,22.379 -44.76,55.301 -52.65,84.25 -23.69,80.301 7.89,169.809 51.33,236.938 40.81,63.191 94.78,123.742 156.65,165.861 57.92,40.81 135.58,84.25 207.98,89.51 40.81,3.95 90.83,-9.21 126.37,-30.28 l 23.7,-13.16 c 7.89,11.85 14.47,23.7 21.05,35.55 9.22,17.11 23.7,26.33 42.13,31.59 3.95,1.32 7.89,1.32 11.84,1.32 3.95,-1.32 9.22,-2.63 13.17,-5.27 3.95,-1.31 5.27,-5.27 10.53,-9.22 -10.53,-11.84 -22.38,-21.06 -26.33,-34.22 2.63,-5.27 5.26,-2.63 6.58,0 9.22,10.53 19.75,19.75 30.28,28.96 2.63,-2.63 5.26,-3.95 9.21,-5.27 7.91,-3.94 6.59,-15.79 15.8,-19.74 7.9,-2.63 11.85,-10.54 15.8,-17.12 5.26,-7.89 9.21,-15.79 13.16,-23.68 3.95,-9.23 6.59,-18.44 9.22,-27.65 1.31,-3.95 -1.32,-9.21 -2.63,-14.48 l -11.86,-18.432 c -48.7,-88.199 -92.14,-181.648 -132.95,-273.796 -13.16,-28.961 -25,-59.243 -36.86,-89.512 -6.58,-17.11 -26.32,-55.289 -7.89,-72.399 25.01,-23.699 97.4,32.911 115.84,46.071 26.33,21.058 55.28,53.968 81.61,61.867 h 7.9 c 5.26,-2.629 11.84,-3.949 15.79,-7.899 0,0 9.22,-11.839 2.63,-18.421" /><path
         id="path36"
         style="fill:#9b1662;fill-opacity:1;fill-rule:nonzero;stroke:none"
         d="m 7897.73,1038.85 c -5.26,-7.89 -6.58,-14.47 -1.31,-21.05 3.94,3.94 5.26,10.52 1.31,21.05 z m -94.77,34.23 c 2.63,3.95 5.26,7.89 2.63,14.48 l -13.16,-13.17 c -5.27,-3.94 -6.59,-7.89 -5.27,-14.47 z m -17.12,-285.65 c -11.84,-23.692 -23.69,-46.071 -31.59,-69.758 13.17,21.058 31.59,60.547 31.59,69.758 z M 7774,805.859 c -15.8,-27.64 -30.28,-55.277 -40.81,-86.871 15.8,28.961 30.28,56.602 40.81,86.871 z m -78.99,-219.82 c 3.95,0 6.58,1.313 7.9,6.582 0,2.629 0,6.578 1.33,10.527 5.26,5.262 7.89,10.524 7.89,21.063 l -7.89,-21.063 -9.23,-17.109 c -1.31,-3.949 -1.31,-6.578 -2.63,-11.859 5.27,3.949 3.95,7.91 2.63,11.859 z m -2.63,35.531 c 1.32,3.961 3.95,7.91 5.27,11.852 h -1.32 c -2.63,-3.942 -3.95,-7.891 -5.26,-11.852 z m -5.26,-63.179 c 0,1.32 0,2.629 1.31,3.949 h -1.31 c -1.32,-1.32 -1.32,-2.629 -1.32,-3.949 z m -10.53,26.328 11.84,26.32 c -1.31,1.32 -1.31,1.32 -2.63,1.32 l -11.84,-27.64 z m -6.58,-14.481 3.95,6.582 c -1.32,0 -2.63,0 -2.63,1.309 -1.32,-2.629 -2.64,-5.258 -2.64,-7.891 z m 6.58,252.731 c -10.53,-13.16 -19.75,-32.91 -18.44,-40.797 6.59,14.476 11.86,27.637 18.44,40.797 z M 7550.22,1009.9 c -6.58,-6.58 -6.58,-6.58 -1.32,-10.541 0,2.641 0,5.271 1.32,10.541 z m 0,13.16 c -2.63,-2.63 -5.26,-3.95 -9.21,-5.26 5.26,-5.27 7.89,-3.95 10.53,-1.32 1.31,1.32 0,3.95 -1.32,6.58 z m -26.33,-855.619 c 18.43,35.539 35.54,71.079 48.7,109.25 5.28,11.848 9.23,25.02 14.49,38.18 l 5.26,9.211 c 7.9,21.059 17.11,40.797 25.01,61.867 1.31,1.321 1.31,3.949 1.31,5.27 -7.89,-15.797 -15.79,-31.598 -21.05,-48.707 -3.95,-9.211 -6.58,-18.43 -10.53,-27.641 l -3.95,-6.582 c -3.95,-10.527 -7.91,-21.059 -13.17,-31.598 -21.06,-42.121 -42.12,-85.562 -61.86,-127.679 -1.32,-1.321 -2.63,-2.641 -2.63,-3.953 -1.32,-2.629 -1.32,-3.95 -1.32,-5.27 0,0 1.32,0 2.63,-1.309 5.27,10.532 11.85,19.75 17.11,28.961 z m -17.11,17.11 c 15.79,28.961 31.6,57.918 44.76,88.187 15.79,42.133 34.22,84.254 50.02,126.371 1.31,2.633 2.63,5.27 2.63,7.903 h -1.32 c -11.84,-26.321 -21.05,-52.653 -32.91,-78.973 -10.53,-26.328 -22.37,-52.668 -35.54,-77.668 -11.85,-26.332 -25.01,-51.351 -38.17,-76.351 0,-1.321 1.32,-1.321 1.32,-1.321 3.95,3.953 6.58,7.903 9.21,11.852 z m -2.63,100.039 c 0,0 -1.32,1.32 -2.63,1.32 -14.49,-31.59 -30.28,-61.871 -46.07,-93.469 1.31,0 1.31,0 2.63,-1.312 17.11,30.281 34.23,60.562 46.07,93.461 z m -32.91,804.29 c -19.74,-9.22 -31.6,-22.38 -34.23,-40.81 10.53,13.16 26.33,21.06 34.23,40.81 z m -30.28,-797.7 c 0,0 -1.32,0 -1.32,1.312 l -10.52,-22.383 c 1.31,0 1.31,0 2.63,-1.32 2.63,7.902 6.58,14.481 9.21,22.391 z m -47.39,-125.059 c 14.49,30.27 30.28,61.871 46.07,93.461 l 23.7,57.918 c 0,0 -1.31,0 -1.31,1.309 L 7368.57,137.16 c 1.31,0 1.31,-1.308 2.63,-1.308 7.9,9.207 15.79,18.418 22.37,30.269 z m -22.37,56.598 c 25,51.34 88.19,181.66 90.83,188.25 l -13.17,-1.328 c -69.76,-2.629 -163.22,-22.371 -219.83,-51.34 -56.6,-28.949 -101.35,-96.09 -103.99,-161.91 -1.31,-50.02 36.86,-109.2504 94.78,-111.8793 85.56,-2.6328 119.79,72.3863 151.38,138.2073 z m -258.01,98.73 c -11.85,-11.847 -19.74,-26.32 -23.69,-43.437 z m -63.18,-117.148 c 3.95,90.828 72.4,161.898 146.11,204.019 88.2,50.032 190.87,65.821 289.59,78.989 -61.86,6.582 -119.78,-6.579 -180.33,15.8 -48.7,18.422 -88.19,51.332 -93.46,105.301 -5.26,57.93 27.65,125.051 48.7,176.391 36.86,90.828 76.35,182.98 122.42,268.539 17.11,30.27 39.5,51.33 75.04,64.49 6.58,2.64 14.47,2.64 22.37,1.32 5.26,-1.32 5.26,-1.32 6.58,-9.21 14.49,5.26 26.33,0 23.7,-17.11 1.32,3.95 3.95,6.58 5.26,9.21 11.85,-6.58 18.43,-15.79 23.7,-23.7 6.58,-10.53 10.53,-21.05 13.16,-32.9 2.63,-6.59 2.63,-14.48 3.95,-22.38 5.26,-35.54 -23.7,-76.349 -36.86,-107.951 -18.42,-42.117 -76.35,-172.437 -93.46,-213.238 -15.79,-36.851 -86.87,-151.379 -19.75,-171.129 61.88,-18.422 101.37,27.649 126.37,77.668 34.23,68.449 63.19,139.539 93.47,209.301 18.42,40.809 92.14,197.449 107.93,240.889 11.86,28.96 26.33,51.34 57.93,61.87 9.21,2.63 18.42,2.63 27.64,-2.64 -1.32,-2.63 -1.32,-5.26 -2.64,-10.52 l 9.22,3.94 c 7.9,5.27 13.17,1.32 18.43,-2.63 3.95,-3.95 6.58,-9.21 3.95,-15.79 v -5.27 c 2.63,5.27 5.26,9.22 9.21,13.16 3.95,-2.63 7.9,-5.26 11.85,-9.21 14.48,-11.85 26.33,-26.33 31.59,-44.75 13.17,-50.03 -75.03,-221.158 -94.77,-265.908 -31.6,-72.391 -68.46,-142.161 -98.73,-214.563 -6.59,-11.848 -10.53,-26.32 -15.8,-39.488 -1.31,-1.321 -1.31,-2.641 -1.31,-5.27 3.94,1.321 6.58,3.949 10.52,3.949 42.13,2.629 100.05,34.231 122.42,44.758 105.32,59.242 132.96,114.524 156.65,155.332 26.33,44.75 61.88,106.629 78.98,139.532 3.95,6.578 6.58,13.168 13.16,15.796 2.64,-9.218 -3.94,-15.796 -1.31,-25.019 2.63,3.953 3.95,10.531 6.58,15.801 1.31,2.629 5.27,2.629 5.27,2.629 3.95,-9.207 11.85,-7.899 14.48,-21.059 0,0 1.31,0 1.31,-2.629 l -1.31,-13.16 c 1.31,0 2.63,1.32 5.26,3.949 -2.63,-11.859 -5.26,-21.07 -9.21,-30.281 -19.75,-61.859 -61.87,-129 -85.56,-165.859 -25.02,-39.489 -93.46,-123.739 -346.2,-210.622 -2.64,-1.308 -6.59,-5.257 -7.9,-7.886 -5.27,-7.903 -7.9,-17.121 -11.85,-26.332 C 7594.98,287.23 7556.8,146.371 7458.08,66.082 7384.36,5.53125 7283.01,-16.8516 7192.17,13.4219 7109.24,41.0703 7044.74,114.781 7050.01,204.301" /><path
         id="path38"
         style="fill:#4387b6;fill-opacity:1;fill-rule:nonzero;stroke:none"
         d="m 4493.68,2559.39 c 61.56,24.88 115.7,43.59 167.78,68.35 191,90.82 293.45,272.41 348.65,496.52 32.84,133.58 52.61,271.95 85.21,405.62 32.02,131.35 89.76,245.11 201.18,302.66 171.72,88.65 368.8,5.53 472.91,-199.14 116.42,-228.79 94.63,-449.61 -22.93,-662.22 -78.13,-141.14 -193.85,-226.31 -323.46,-284.64 -291.27,-131.09 -597.31,-152.85 -907.23,-139.07 -4.45,0.17 -8.85,4.59 -22.11,11.92" /><path
         id="path40"
         style="fill:#191b39;fill-opacity:1;fill-rule:nonzero;stroke:none"
         d="m 5715.25,2687.35 c 11.08,2.77 22.14,5.94 32.84,9.83 249.7,90.27 500.93,65.57 753.97,-48.07 111.9,-50.31 223.24,-104.89 337.51,-143.83 129.69,-44.21 248.22,30.61 298.56,169.57 32.68,90.28 32.87,185.49 14.89,282.49 -44.24,237.47 -209.23,429.75 -415.31,450.5 -128.61,12.93 -248.41,-21.04 -361.26,-79.48 -213.26,-110.66 -389.22,-279.42 -551.83,-468.02 -44.85,-52.01 -86.97,-107.2 -140.23,-173.21 21.83,0.07 26.54,-0.75 30.86,0.22" /><path
         id="path42"
         style="fill:#9b1662;fill-opacity:1;fill-rule:nonzero;stroke:none"
         d="m 4969.27,3332.02 c 21.49,289.35 23.62,295.6 168.23,549.79 71.19,125.19 147.49,246.96 210.92,377.69 51.94,107.14 72.86,230.99 33.44,352.58 -51.72,159.41 -216.28,260.98 -358.21,240.3 -190.97,-27.92 -313.54,-244.31 -339.54,-430.19 -33.59,-239.75 14,-467.47 94.04,-686.76 51.34,-140.59 115.57,-274.89 174.08,-411.93 5.65,2.84 11.32,5.71 17.04,8.52" /><path
         id="path44"
         style="fill:#191b39;fill-opacity:1;fill-rule:nonzero;stroke:none"
         d="m 4781.72,3143.84 c -32.44,187.94 -57.87,377.96 -100.06,563.36 -47.14,206.8 -115.37,405.4 -263.77,551.69 -76.26,75.25 -158.81,132.54 -257.98,105.14 -203.42,-56.09 -265.24,-321.95 -116.84,-505.53 46.54,-57.59 105.32,-103.25 162.61,-146.66 218.46,-165.4 452.42,-309.39 577.85,-606.26 -0.56,12.77 0.33,25.77 -1.81,38.26" /><path
         id="path46"
         style="fill:#4387b6;fill-opacity:1;fill-rule:nonzero;stroke:none"
         d="m 4502.44,2739.21 c -58.52,65.2 -121.5,125.69 -174.48,196.52 -82.86,110.9 -122.37,248.24 -156.22,387.97 -23.36,96.41 -35.88,198.92 -103.83,273.61 -83.55,91.81 -178.43,143.02 -291.34,110.11 -141.1,-41.29 -243.34,-318.54 -113.68,-473.06 46.21,-55 93.65,-111.15 147.54,-154.31 179.39,-143.49 380.79,-230.56 583.1,-313.72 35.09,-14.38 71.24,-25.03 106.87,-37.39 0.69,3.43 1.36,6.82 2.04,10.27" /><path
         id="path48"
         style="fill:#9b1662;fill-opacity:1;fill-rule:nonzero;stroke:none"
         d="m 6042.98,3320.9 c 165.5,47.07 322.84,113.39 436.48,272.33 83.4,116.61 123.31,253.38 99.59,407.62 -17.43,113.79 -100.72,188.28 -199.09,192.81 -94.94,4.38 -175.24,-68.98 -205.56,-175.49 -30.32,-106.26 -12.05,-214.11 -15.4,-321.34 -2.16,-66.24 -5.55,-136.38 -25.66,-196.25 -21.22,-62.93 -63.05,-115.7 -97.24,-175.38 1.37,-0.98 4.65,-4.97 6.88,-4.3" /><path
         id="path50"
         style="fill:#4abe9c;fill-opacity:1;fill-rule:nonzero;stroke:none"
         d="m 4144.64,2635.57 c -108.73,87.49 -212.65,186.2 -328.14,258.04 -95.66,59.53 -204.21,86.59 -314.35,40.17 -123.24,-51.89 -192.33,-199.95 -155.44,-339.94 33.34,-126.27 138.5,-215.94 285.06,-162.14 49.48,18.15 96.04,47.18 143.52,72.31 117.28,62.18 228.25,150.37 371.71,112.07 -1.39,12.41 -0.63,18.13 -2.36,19.49" /><path
         id="path52"
         style="fill:#f68f29;fill-opacity:1;fill-rule:nonzero;stroke:none"
         d="m 5976.18,3681.92 c 13.04,44.14 30.19,86.59 45.3,129.91 11.96,34.24 25.84,67.95 34.93,103.2 22.7,88.13 11.35,169.75 -41.66,237.2 -49.24,62.66 -137.21,65.63 -177.88,-1.44 -29.28,-48.22 -56.21,-110.86 -57.78,-167.58 -4.81,-173.8 79.86,-306.09 161.41,-449.58 14.31,60.15 22.99,105.05 35.68,148.29" /><path
         id="path54"
         style="fill:#4abe9c;fill-opacity:1;fill-rule:nonzero;stroke:none"
         d="m 5547.89,3972.17 c 49.87,69.87 105.92,131.48 181.84,164.06 74.74,32.19 93.64,75.77 68.68,191.04 -14.59,67.46 -68.62,117.07 -124.42,126.11 -81.75,13.19 -163.52,-26.74 -191.3,-95.14 -55.67,-137.28 -15.66,-272.5 38.92,-420.7 14.22,18.83 20.47,26.55 26.28,34.63" /><path
         id="path56"
         style="fill:#f68f29;fill-opacity:1;fill-rule:nonzero;stroke:none"
         d="m 4736.58,2833.15 c -43.46,152.41 -109.74,288.22 -214.07,395.09 -28.36,29.05 -61.3,51.64 -99.04,28.02 -42.11,-26.4 -56.84,-74.97 -52.19,-127.48 2.91,-33.24 13.16,-70.86 30.6,-96.62 85.81,-126.82 204.41,-189.54 336.07,-240.12 -0.49,19.51 1.45,31.27 -1.37,41.11" /><path
         id="path58"
         style="fill:#4387b6;fill-opacity:1;fill-rule:nonzero;stroke:none"
         d="m 6693.05,3478.19 c 68.39,-0.91 137.92,-6.03 204.79,5.58 31.98,5.55 68.92,38.28 85.78,71.55 20.74,40.85 -24.18,161.31 -63.32,191.5 -46.69,35.96 -93.34,27.35 -138.83,-5.02 -82.78,-58.67 -138.83,-147.4 -206.8,-251.4 48.38,-5.23 83.38,-11.63 118.38,-12.21" /></g></g></svg>